<svg width="128" height="128" version="1.1" viewBox="0 0 33.867 33.867" xmlns="http://www.w3.org/2000/svg">
 <defs>
  <filter id="colors8513673516">
   <feColorMatrix class="icon-fecolormatrix" values="0 0 0 0 0.796875  0 0 0 0 0  0 0 0 0 0  0 0 0 1 0"/>
  </filter>
 </defs>
 <g>
  <g transform="matrix(.32461 0 0 .31089 .02125 1.6741)" fill="#333">
   <path transform="matrix(.69 0 0 .69 17.823 13.896)" d="m-13.86 73.6 27.51-46.66a5.874 5.874 0 0 1 4.95-2.9c2.19 0.11 3.95 0.97 5.06 2.68l6.39 9.83 14.87-25.25c1.09-1.84 3.18-2.98 5.23-2.89 2.14 0.05 4.09 1.27 5.07 3.17l20.74 39.88 9.18-15.57a5.858 5.858 0 0 1 4.94-2.9c2.06 0.02 3.96 0.98 5.07 2.69l21.04 32.32 1.52 2.27c1.92-6.42 2.99-13.2 2.99-20.24 0-38.98-31.71-70.69-70.69-70.69s-70.69 31.71-70.69 70.69c0 9.25 1.83 18.06 5.08 26.16z" filter="url(#colors8513673516)"/>
   <path transform="matrix(.69 0 0 .69 18.353 13.896)" d="m49.68 26.44-41.84 70.94-4.04 6.06c9.48 8.21 21.14 13.92 34 16.17 0.83-2.1 1.51-3.88 1.83-4.9-0.01-1.05 0.27-2.1 0.82-3.02l28.46-48.27zm-26.32 21.43-4.39-6.76-22.87 38.77-5.56 8.26c1.5 2.32 3.08 4.58 4.82 6.71l2.5-3.73zm82.98 26.61-15.88-24.43-39.11 66.32c-0.24 1.11-0.67 2.5-1.35 4.36 26.92 0 50.36-15.13 62.29-37.33z" filter="url(#colors8513673516)"/>
  </g>
 </g>
</svg>
