<svg width="490" height="140" version="1.1" viewBox="0 0 129.65 37.042" xmlns="http://www.w3.org/2000/svg">
 <defs>
  <filter id="colors8513673516">
   <feColorMatrix class="icon-fecolormatrix" values="0 0 0 0 0.796875  0 0 0 0 0  0 0 0 0 0  0 0 0 1 0"/>
  </filter>
 </defs>
 <g>
  <g stroke-width=".26458">
   <path d="m13.191 18.469q-1.6692 1.4934-4.5023 1.4934-2.6575 0-4.9416-1.4934-1.1201-0.92242-0.19766-2.0206 0.98831-1.186 2.2841-0.24159 1.4715 0.8785 2.943 0.8785 1.2738 0 1.9547-0.50514 0.68084-0.50514 0.68084-1.4056 0-0.43925-0.15374-0.74672-0.13178-0.32944-0.57102-0.61495-0.41729-0.28551-0.7028-0.41729t-1.0542-0.46121l-2.2402-0.94439q-3.3603-1.4056-3.3603-4.4803 0-2.0645 1.6033-3.4261 1.6252-1.3836 4.1509-1.3836 2.372 0 4.2607 1.3177 0.96635 0.83458 0.15374 1.8009-0.92242 1.1201-2.0425 0.32944-1.142-0.59299-2.372-0.59299-1.1201 0-1.779 0.48317-0.63691 0.46121-0.63691 1.2738 0 0.76869 0.59299 1.2079 0.59299 0.41729 1.8229 0.90046 0.13178 0.043925 0.19766 0.065888l2.1743 0.92242q1.6252 0.68084 2.4818 1.757 0.8785 1.0542 0.8785 2.7673 0 2.1084-1.6252 3.536z"/>
   <path d="m38.119 3.0072h9.9929q1.3617 0 1.3617 1.3836 0 1.3836-1.3617 1.3836h-3.3603v12.211q0 1.6692-1.6692 1.6692-1.6472 0-1.6472-1.6692v-12.211h-3.3163q-1.3617 0-1.3617-1.3836 0-1.3836 1.3617-1.3836z"/>
   <path d="m60.96 4.6763v9.5976q0 2.5037-1.3178 4.107-1.2958 1.5813-3.8434 1.5813-2.7453 0-4.3486-1.779-0.83458-1.142 0.24159-1.9327 1.2079-0.90046 2.372 0.46121 0.59299 0.37336 1.3397 0.37336 1.142 0 1.6692-0.7028 0.54906-0.7028 0.54906-2.372v-9.3341q0-1.6692 1.6692-1.6692t1.6692 1.6692z"/>
   <path d="m67.944 8.6955v9.3121q0 1.6472-1.6252 1.6472-1.6472 0-1.6472-1.6472v-9.3121q0-1.6252 1.6472-1.6252 1.6252 0 1.6252 1.6252zm-3.5799-5.4687q0-0.81261 0.54906-1.2958 0.57102-0.48318 1.4276-0.48318 0.85654 0 1.4056 0.50514 0.54906 0.48318 0.54906 1.2738 0 0.76869-0.57102 1.2958-0.54906 0.50514-1.3836 0.50514-0.85654 0-1.4276-0.50514-0.54906-0.5271-0.54906-1.2958z"/>
   <path d="m75.433 17.81q0 0.92242-0.59299 1.5374-0.57102 0.61495-1.4715 0.61495-0.8785 0-1.4715-0.61495-0.57102-0.63691-0.57102-1.5374 0-0.90046 0.57102-1.5154 0.59299-0.63691 1.4715-0.63691t1.4715 0.63691q0.59299 0.61495 0.59299 1.5154z"/>
   <path d="m78.222 11.397q0-3.7776 2.1304-6.2374 2.1523-2.4598 5.6224-2.4598 2.1962 0 3.9972 1.3397 0.8785 0.79065 0.04393 1.779-0.92242 1.1201-2.0864 0.21962-0.90046-0.48317-1.8888-0.48317-1.9327 0-3.1846 1.5593-1.2299 1.5374-1.2299 4.1729 0 2.7014 1.164 4.2607 1.186 1.5374 3.1846 1.5374 1.186 0 2.3061-0.68084 1.1201-0.96635 2.0864 0.1757 0.79065 0.94439-0.10981 1.8448-1.8668 1.5374-4.4145 1.5374-3.2944 0-5.4687-2.2621-2.1523-2.2841-2.1523-6.3032z"/>
   <path d="m107.87 11.265q0 3.8434-1.9766 6.2813-1.9766 2.4159-5.4687 2.4159-3.3383 0-5.4028-2.328-2.0425-2.35-2.0425-6.3691 0-3.9972 2.0425-6.2813 2.0425-2.2841 5.4028-2.2841 3.3603 0 5.4028 2.2841t2.0425 6.2813zm-11.486 0q0 2.5037 1.0103 4.1729 1.0322 1.6472 3.0308 1.6472 1.8668 0 2.9649-1.5813 1.0981-1.5813 1.0981-4.2388 0-2.6575-1.0981-4.1729-1.0981-1.5374-2.9649-1.5374-1.8668 0-2.9649 1.5154-1.0762 1.5154-1.0762 4.1948z"/>
   <path d="m123.71 3.0072h1.6692q0.39533 0 0.61495 0.24159 0.24159 0.21962 0.24159 0.61495v14.276q0 1.5154-1.4934 1.5154-1.5374 0-1.5374-1.5154v-5.4247q0-1.186 0.41728-5.4687h-0.10981q-0.96635 2.8771-3.5579 9.9929-0.32944 0.90046-1.3178 0.90046h-0.0659q-0.8785 0-1.186-0.81261l-2.2841-6.1715-1.3178-3.9093h-0.0878q0.41728 4.2827 0.41728 5.4687v5.4467q0 1.4934-1.4715 1.4934-1.5154 0-1.5154-1.4934v-13.683q0-0.65888 0.39533-1.0542 0.41729-0.41729 1.0762-0.41729h1.0762q0.5271 0 0.94439 0.30748 0.43925 0.28551 0.59299 0.76869l2.4378 6.7205q0.28551 0.83458 1.0103 3.2065h0.10981q0.15374-0.46121 0.48318-1.5374 0.32944-1.0981 0.5271-1.6692l2.3939-6.7205q0.15374-0.48318 0.57103-0.76869 0.43925-0.30748 0.96634-0.30748z"/>
  </g>
  <g transform="matrix(.21356 0 0 .20453 15.131 1.3739)" fill="#333">
   <path transform="matrix(.69 0 0 .69 17.823 13.896)" d="m-13.86 73.6 27.51-46.66a5.874 5.874 0 0 1 4.95-2.9c2.19 0.11 3.95 0.97 5.06 2.68l6.39 9.83 14.87-25.25c1.09-1.84 3.18-2.98 5.23-2.89 2.14 0.05 4.09 1.27 5.07 3.17l20.74 39.88 9.18-15.57a5.858 5.858 0 0 1 4.94-2.9c2.06 0.02 3.96 0.98 5.07 2.69l21.04 32.32 1.52 2.27c1.92-6.42 2.99-13.2 2.99-20.24 0-38.98-31.71-70.69-70.69-70.69s-70.69 31.71-70.69 70.69c0 9.25 1.83 18.06 5.08 26.16z" filter="url(#colors8513673516)"/>
   <path transform="matrix(.69 0 0 .69 18.353 13.896)" d="m49.68 26.44-41.84 70.94-4.04 6.06c9.48 8.21 21.14 13.92 34 16.17 0.83-2.1 1.51-3.88 1.83-4.9-0.01-1.05 0.27-2.1 0.82-3.02l28.46-48.27zm-26.32 21.43-4.39-6.76-22.87 38.77-5.56 8.26c1.5 2.32 3.08 4.58 4.82 6.71l2.5-3.73zm82.98 26.61-15.88-24.43-39.11 66.32c-0.24 1.11-0.67 2.5-1.35 4.36 26.92 0 50.36-15.13 62.29-37.33z" filter="url(#colors8513673516)"/>
  </g>
  <g fill="#333" stroke-width=".26458">
   <path d="m7.0592 30.633h-2.8965v-0.85422h2.8965z"/>
   <path d="m11.424 30.633h-2.8965v-0.85422h2.8965z"/>
   <path d="m12.729 31.61q0.87385 0.71184 2.057 0.71184 1.5121 0 1.5121-1.0359 0-0.29946-0.16692-0.54002-0.16692-0.24056-0.45165-0.41729-0.27983-0.18164-1.1144-0.57929-1.026-0.49093-1.4335-0.99658-0.40747-0.50566-0.40747-1.188 0-0.98186 0.77567-1.5464t1.9833-0.56457q1.1439 0 1.7281 0.27983v1.2077q-0.70203-0.48602-1.7526-0.48602-0.67257 0-1.085 0.27001-0.41238 0.27001-0.41238 0.7413 0 0.42711 0.29947 0.70203 0.30438 0.27492 1.2764 0.73639 1.134 0.5302 1.5661 1.0653 0.43202 0.5302 0.43202 1.2224 0 1.0309-0.74621 1.5759-0.74621 0.54493-2.0668 0.54493-0.48602 0-1.08-0.11782-0.59402-0.11782-0.91313-0.31419z"/>
   <path d="m25.862 33.186v-4.9093q0-0.64312 0.06873-1.5268h-0.02946q-0.14728 0.6333-0.23074 0.82967l-2.3123 5.6064h-0.77075l-2.3221-5.5622q-0.088367-0.2111-0.23074-0.87385h-0.02946q0.04909 0.6873 0.04909 1.6593v4.7767h-1.0948v-7.6045h1.6446l2.057 5.0222q0.24056 0.58911 0.3191 0.97695h0.03437q0.09328-0.30928 0.34365-0.99167l2.0914-5.0075h1.5808v7.6045z"/>
   <path d="m33.726 26.593h-2.1846v6.5932h-1.1831v-6.5932h-2.1797v-1.0113h5.5475z"/>
   <path d="m37.016 26.529-0.75603 0.49584q-0.53511-0.83458-1.3157-1.7133l0.77567-0.47129q0.77076 0.85421 1.296 1.6888zm6.3428 2.1306h-1.409q-0.3731 0-0.60875-0.21601-0.23564-0.22092-0.23564-0.55475v-1.8704h-2.0177q0 1.1684-0.39274 1.8164-0.38783 0.64312-1.1586 0.97695l-0.54984-0.68239q0.5302-0.23564 0.88367-0.62839 0.35347-0.39765 0.35347-1.3353v-0.97204h3.7605v2.4645q0 0.17673 0.18655 0.17673h1.188zm-5.6408 3.1714q-0.86403 0.71676-1.8901 1.3648l-0.4222-0.76585q0.1031-0.1031 0.1031-0.27001v-3.7212h-0.91804v-0.87385h1.8312v4.1925q0.3731-0.24056 0.93276-0.71184zm5.7242 1.2224-0.39274 0.7953q-1.517-0.44184-2.8474-1.2371-1.3206 0.81494-2.8768 1.1684l-0.44184-0.78548q1.5464-0.3191 2.597-0.92294-0.94749-0.81494-1.4924-2.1355h-0.51056v-0.81985h5.0369v0.81985q-0.86403 1.4924-1.5857 2.1159 0.99167 0.58911 2.5136 1.0015zm-1.9441-3.1174h-2.5725q0.50075 1.0359 1.2764 1.6495 0.65293-0.59893 1.296-1.6495z"/>
   <path d="m53.516 29.274-0.41238 0.76585q-0.43693-0.108-1.026-0.27001v3.9274h-0.85422v-0.45165h-4.4233v0.45165h-0.88858v-3.9274q-0.59402 0.18164-0.93276 0.23074l-0.43202-0.77567q2.111-0.4762 3.6181-1.134-0.56948-0.39765-1.4188-1.1782-0.7953 0.66275-1.4384 1.0064l-0.59893-0.6333q1.3991-0.7413 2.9652-2.4939l0.82476 0.36329q-0.30438 0.36329-0.4762 0.52038h4.0551v0.81494q-1.1733 1.0702-2.1012 1.6201 1.4286 0.68239 3.5396 1.1635zm-2.7492-2.7836h-3.2352q0.66275 0.61857 1.517 1.134 1.0015-0.52529 1.7182-1.134zm0.43693 2.9947q-1.1635-0.3682-2.1552-0.89349-1.0506 0.51547-2.2288 0.89349zm0.01964 1.5317v-0.71675h-1.8017v0.71675zm-2.6363 0v-0.71675h-1.787v0.71675zm2.6363 1.4581v-0.72657h-1.8017v0.72657zm-2.6363 0v-0.72657h-1.787v0.72657z"/>
   <path d="m55.975 35.739h-0.97695v-10.854h0.97695z"/>
   <path d="m66.334 33.437h-8.7189v-0.88367h4.0551v-2.1944h-3.0487v-0.88367h3.0487v-1.9195h-2.2534q-0.55475 0.96222-1.2273 1.6495l-0.68239-0.65293q1.3697-1.4041 1.8361-3.4512l0.8984 0.2111q-0.17182 0.64312-0.41238 1.3599h1.841v-1.7624h0.92294v1.7624h3.6083v0.88367h-3.6083v1.9195h3.1959v0.88367h-3.1959v2.1944h3.7409z"/>
   <path d="m76.408 29.529h-7.2215v0.80021q0 1.7477-0.9524 3.2892l-0.71675-0.54493q0.34856-0.54984 0.54984-1.3108 0.20619-0.76585 0.20619-1.3795v-1.7035h1.9833q-0.29947-0.77567-0.83458-1.679l0.58911-0.23074h-2.1797v-0.85421h3.952q-0.13746-0.46638-0.36329-0.87385l0.89349-0.25037q0.25528 0.49584 0.43202 1.1242h3.52v0.85421h-2.1306l0.69221 0.24546q-0.35838 0.90331-0.80021 1.6642h2.381zm-2.4546-2.759h-3.6378q0.48602 0.8444 0.89349 1.9097h1.8213q0.51548-0.88367 0.92294-1.9097z"/>
   <path d="m81.896 32.946q0 0.4222-0.2651 0.57439-0.26019 0.15219-0.96713 0.15219-0.2651 0-0.51547-0.01473l-0.24056-0.81494q0.81003 0.03437 1.0113 0.03437 0.18164 0 0.18164-0.19146v-1.2273h-2.1404q-0.13255 1.3599-0.54002 2.2632l-0.72657-0.54493q0.25037-0.54002 0.41238-1.3599 0.16201-0.82476 0.16201-1.4679v-2.7737q-0.16201 0.12273-0.22092 0.15219l-0.40256-0.79531q0.89349-0.71184 1.6692-2.0815l0.81494 0.22092q-0.09819 0.23565-0.2111 0.41238h1.7379v0.77566q-0.35347 0.49093-0.76585 0.96713h1.0064zm-1.2273-6.6864h-1.2666q-0.5302 0.68239-0.80512 0.96713h1.247q0.30928-0.32892 0.82476-0.96713zm0.43202 2.6657v-0.92785h-0.6333v0.92785zm-1.3844 0v-0.92785h-0.66275v0.92785zm1.3844 1.7575v-0.97695h-0.6333v0.97695zm-1.3844 0v-0.97695h-0.66275v0.97695zm6.603-5.5377q0 1.0751-0.054 1.7281-0.054 0.64802-0.17182 0.8493-0.11291 0.19637-0.34856 0.31419-0.23074 0.11782-0.6873 0.11782-0.25037 0-0.51547-0.02455l-0.23074-0.82476q0.39274 0.02946 0.82476 0.02946 0.08346 0 0.1571-0.06873 0.07364-0.07364 0.11291-0.46147 0.03927-0.39274 0.03927-0.87876h-0.99658q-0.15219 1.841-1.8263 2.5136l-0.52529-0.70203q1.4384-0.50566 1.4777-1.8115h-1.1046v-0.78058zm0.19146 6.8632h-1.6102v1.6692h-0.86403v-1.6692h-1.7575v-0.80021h1.7575v-1.0359h-0.83458q-0.1571 0.38783-0.37801 0.80021l-0.72657-0.38783q0.54984-0.96713 0.76585-2.1159l0.76094 0.24546-0.1571 0.66275h0.56948v-0.92785h0.86403v0.92785h1.4679v0.7953h-1.4679v1.0359h1.6102z"/>
   <path d="m96.536 29.907h-3.1861q-0.18164 1.4188-1.134 2.4203-0.9524 0.99658-2.2239 1.4433l-0.5842-0.76585q2.7836-1.0015 3.0339-3.0978h-2.3515v-0.86403h2.4448q0.1031-1.134 0.08837-1.8999h-2.111v-0.8444h2.1208v-1.3648h0.87876v1.3648h2.1895v2.7443h0.83458zm-1.7084-0.86403v-1.8999h-1.3255q-0.01964 1.08-0.07364 1.8999zm-4.8062-2.0275-0.71185 0.54002q-0.56948-0.94749-1.3304-1.7673l0.68239-0.57439q0.93767 1.0162 1.3599 1.8017zm-0.15219 2.5234q-0.54002 2.2337-1.409 3.9471l-0.78058-0.55966q0.8444-1.6593 1.3844-3.8194zm6.7699 3.6574-0.67748 0.62348q-0.8984-1.3353-2.5823-2.8228l0.64312-0.59402q1.6937 1.4924 2.6166 2.7934z"/>
   <path d="m106.58 27.226h-5.2578q-0.0344 0.87876-0.1031 1.4777h4.3251q-0.0835 1.8017-0.2111 2.9603-0.12273 1.1586-0.28474 1.4433-0.16201 0.27983-0.48111 0.43202-0.3191 0.15219-1.1242 0.15219-0.53021 0-1.134-0.04418l-0.23564-0.87385q0.76585 0.05891 1.3402 0.05891 0.59402 0 0.73148-0.12273 0.14237-0.12273 0.24547-0.83949 0.108-0.71675 0.18655-2.3123h-3.4267q-0.32401 2.5234-2.867 4.1925l-0.55966-0.76585q0.8493-0.50566 1.5219-1.2715 0.67257-0.76585 0.87876-1.7428 0.2111-0.98186 0.25038-2.7443h-2.5136v-0.86894h3.9618q-0.31419-0.62348-0.7413-1.2224l0.9524-0.28474q0.54002 0.90331 0.81494 1.5071h3.731z"/>
   <path d="m116.27 26.79h-0.86404v-0.54002h-6.3231v0.54002h-0.87386v-1.2862h3.6476q-0.10801-0.21601-0.24056-0.43202l0.8444-0.24055 0.3731 0.67257h3.4365zm0.19146 1.0064h-2.381q-0.4222 0.60384-0.76585 0.90822 1.5759 0.39765 2.8768 0.92294l-0.41238 0.68239q-1.3108-0.57929-3.2303-1.0359-1.571 0.88367-4.2809 0.97695l-0.25037-0.76585q1.949 0.01964 3.3678-0.49093-0.96713-0.22583-2.1503-0.39274 0.37311-0.34365 0.81494-0.80512h-1.9932v-0.7413h2.6265q0.24546-0.3191 0.47129-0.65293l0.8444 0.22092q-0.0982 0.17673-0.29456 0.43202h1.8606l0.22091-0.41238 0.85422 0.13746q-0.0295 0.07364-0.12764 0.27492h1.949zm-3.3972 0h-1.9294q-0.18655 0.22583-0.33383 0.36329 1.0211 0.18655 1.5612 0.32401 0.48602-0.4222 0.70203-0.6873zm3.5985 3.4905h-3.9422v2.4105h-0.88367v-2.4105h-3.9127v-0.81494h3.9127v-0.61366h0.88367v0.61366h3.9422zm-5.41 0.77567q-1.2666 0.97695-2.8621 1.5268l-0.46638-0.72657q1.4531-0.42711 2.6756-1.3059zm5.4395 0.78058-0.45166 0.6873q-1.4384-0.80512-2.9456-1.2666l0.46147-0.6873q1.6544 0.5302 2.9358 1.2666z"/>
   <path d="m120.92 30.633h-2.8965v-0.85422h2.8965z"/>
   <path d="m125.29 30.633h-2.8965v-0.85422h2.8965z"/>
  </g>
 </g>
</svg>
